<?xml version="1.0" encoding="utf-8"?>
<!-- Generator: Adobe Illustrator 27.5.0, SVG Export Plug-In . SVG Version: 6.00 Build 0)  -->
<svg version="1.1" xmlns="http://www.w3.org/2000/svg" xmlns:xlink="http://www.w3.org/1999/xlink" x="0px" y="0px"
	 viewBox="0 0 500 500" style="enable-background:new 0 0 500 500;" xml:space="preserve">
<g id="Background_Simple">
	<g>
		<path style="fill:#92E3A9;" d="M418.133,102.707c0,0-90.271-94.167-162.774-92.657C182.857,11.561-2.175,198.859,6.888,275.892
			c9.063,77.034,149.536,182.766,220.528,205.423c70.992,22.657,233.366-118.571,258.289-217.507
			C510.628,164.873,418.133,102.707,418.133,102.707z"/>
		<path style="opacity:0.7;fill:#FFFFFF;" d="M418.133,102.707c0,0-90.271-94.167-162.774-92.657
			C182.857,11.561-2.175,198.859,6.888,275.892c9.063,77.034,149.536,182.766,220.528,205.423
			c70.992,22.657,233.366-118.571,258.289-217.507C510.628,164.873,418.133,102.707,418.133,102.707z"/>
	</g>
</g>
<g id="Floor">
	<g>
		<line style="fill:none;stroke:#263238;stroke-miterlimit:10;" x1="48.644" y1="455.507" x2="12.783" y2="455.507"/>
		<line style="fill:none;stroke:#263238;stroke-miterlimit:10;" x1="449.236" y1="455.507" x2="60.015" y2="455.507"/>
		<line style="fill:none;stroke:#263238;stroke-miterlimit:10;" x1="479.849" y1="455.507" x2="458.857" y2="455.507"/>
	</g>
</g>
<g id="Pictures">
	<g>
		<g>
			
				<rect x="311.566" y="46.378" style="fill:none;stroke:#263238;stroke-linecap:round;stroke-linejoin:round;stroke-miterlimit:10;" width="59.999" height="77.142"/>
			
				<rect x="315.439" y="51.359" style="fill:none;stroke:#263238;stroke-linecap:round;stroke-linejoin:round;stroke-miterlimit:10;" width="52.252" height="67.181"/>
			
				<rect x="333.132" y="74.106" style="fill:none;stroke:#263238;stroke-linecap:round;stroke-linejoin:round;stroke-miterlimit:10;" width="16.867" height="21.686"/>
		</g>
		<g>
			
				<rect x="240.657" y="104.04" style="fill:none;stroke:#263238;stroke-linecap:round;stroke-linejoin:round;stroke-miterlimit:10;" width="60" height="77.142"/>
			
				<rect x="244.531" y="109.021" style="fill:none;stroke:#263238;stroke-linecap:round;stroke-linejoin:round;stroke-miterlimit:10;" width="52.252" height="67.181"/>
			
				<rect x="262.223" y="131.768" style="fill:none;stroke:#263238;stroke-linecap:round;stroke-linejoin:round;stroke-miterlimit:10;" width="16.867" height="21.686"/>
		</g>
		<g>
			
				<rect x="388.318" y="104.04" style="fill:none;stroke:#263238;stroke-linecap:round;stroke-linejoin:round;stroke-miterlimit:10;" width="60" height="77.142"/>
			
				<rect x="392.192" y="109.021" style="fill:none;stroke:#263238;stroke-linecap:round;stroke-linejoin:round;stroke-miterlimit:10;" width="52.252" height="67.181"/>
			
				<rect x="409.884" y="131.768" style="fill:none;stroke:#263238;stroke-linecap:round;stroke-linejoin:round;stroke-miterlimit:10;" width="16.867" height="21.686"/>
		</g>
		<g>
			
				<rect x="311.566" y="135.664" style="fill:none;stroke:#263238;stroke-linecap:round;stroke-linejoin:round;stroke-miterlimit:10;" width="59.999" height="45.063"/>
			
				<rect x="315.439" y="138.573" style="fill:none;stroke:#263238;stroke-linecap:round;stroke-linejoin:round;stroke-miterlimit:10;" width="52.252" height="39.244"/>
			
				<rect x="333.132" y="151.861" style="fill:none;stroke:#263238;stroke-linecap:round;stroke-linejoin:round;stroke-miterlimit:10;" width="16.867" height="12.668"/>
		</g>
		<g>
			
				<rect x="343.855" y="200.206" transform="matrix(-1.836970e-16 1 -1 -1.836970e-16 578.0477 -148.4808)" style="fill:none;stroke:#263238;stroke-linecap:round;stroke-linejoin:round;stroke-miterlimit:10;" width="38.819" height="29.155"/>
			
				<rect x="346.361" y="202.088" transform="matrix(-1.836970e-16 1 -1 -1.836970e-16 578.0478 -148.4808)" style="fill:none;stroke:#263238;stroke-linecap:round;stroke-linejoin:round;stroke-miterlimit:10;" width="33.806" height="25.39"/>
			
				<rect x="357.808" y="210.685" transform="matrix(-1.836970e-16 1 -1 -1.836970e-16 578.0477 -148.4808)" style="fill:none;stroke:#263238;stroke-linecap:round;stroke-linejoin:round;stroke-miterlimit:10;" width="10.913" height="8.196"/>
		</g>
		<g>
			
				<rect x="300.771" y="200.206" transform="matrix(-1.836970e-16 1 -1 -1.836970e-16 534.9633 -105.3964)" style="fill:none;stroke:#263238;stroke-linecap:round;stroke-linejoin:round;stroke-miterlimit:10;" width="38.819" height="29.155"/>
			
				<rect x="303.277" y="202.088" transform="matrix(-1.836970e-16 1 -1 -1.836970e-16 534.9633 -105.3963)" style="fill:none;stroke:#263238;stroke-linecap:round;stroke-linejoin:round;stroke-miterlimit:10;" width="33.806" height="25.39"/>
			
				<rect x="314.723" y="210.685" transform="matrix(-1.836970e-16 1 -1 -1.836970e-16 534.9633 -105.3963)" style="fill:none;stroke:#263238;stroke-linecap:round;stroke-linejoin:round;stroke-miterlimit:10;" width="10.913" height="8.196"/>
		</g>
	</g>
</g>
<g id="Books">
	<g>
		<g>
			
				<rect x="273.581" y="350.486" style="fill:#263238;stroke:#263238;stroke-linecap:round;stroke-linejoin:round;stroke-miterlimit:10;" width="59.958" height="3.927"/>
			
				<rect x="310.128" y="350.486" style="fill:#FFFFFF;stroke:#263238;stroke-linecap:round;stroke-linejoin:round;stroke-miterlimit:10;" width="25.904" height="3.927"/>
		</g>
		<g>
			
				<rect x="273.581" y="346.472" style="fill:#FFFFFF;stroke:#263238;stroke-linecap:round;stroke-linejoin:round;stroke-miterlimit:10;" width="59.958" height="3.927"/>
			
				<rect x="310.128" y="346.472" style="fill:#FFFFFF;stroke:#263238;stroke-linecap:round;stroke-linejoin:round;stroke-miterlimit:10;" width="25.904" height="3.927"/>
		</g>
		<g>
			
				<rect x="273.581" y="342.457" style="fill:#92E3A9;stroke:#263238;stroke-linecap:round;stroke-linejoin:round;stroke-miterlimit:10;" width="59.958" height="3.927"/>
			
				<rect x="310.128" y="342.457" style="fill:#FFFFFF;stroke:#263238;stroke-linecap:round;stroke-linejoin:round;stroke-miterlimit:10;" width="25.904" height="3.927"/>
		</g>
		<g>
			
				<rect x="273.581" y="338.442" style="fill:#FFFFFF;stroke:#263238;stroke-linecap:round;stroke-linejoin:round;stroke-miterlimit:10;" width="59.958" height="3.928"/>
			
				<rect x="310.128" y="338.442" style="fill:#FFFFFF;stroke:#263238;stroke-linecap:round;stroke-linejoin:round;stroke-miterlimit:10;" width="25.904" height="3.928"/>
		</g>
		<g>
			
				<rect x="273.581" y="334.428" style="fill:#92E3A9;stroke:#263238;stroke-linecap:round;stroke-linejoin:round;stroke-miterlimit:10;" width="59.958" height="3.927"/>
			
				<rect x="310.128" y="334.428" style="fill:#FFFFFF;stroke:#263238;stroke-linecap:round;stroke-linejoin:round;stroke-miterlimit:10;" width="25.904" height="3.927"/>
		</g>
	</g>
</g>
<g id="Plant_2">
	<g>
		<path style="fill:#FFFFFF;stroke:#263238;stroke-linecap:round;stroke-linejoin:round;stroke-miterlimit:10;" d="M357.438,288.974
			c0.013-0.556,6.71-0.852,14.959-0.661c8.249,0.19,14.925,0.795,14.912,1.35c-0.013,0.556-6.71,0.852-14.959,0.661
			C364.102,290.134,357.425,289.529,357.438,288.974z"/>
		<path style="fill:#92E3A9;stroke:#263238;stroke-miterlimit:10;" d="M380.195,292.074c0,0,2.28-4.999,7.287-10.838
			s12.972-14.856,13.941-17.721c0.968-2.864-1.821,2.39-11.552,8.033c-9.875,5.726-13.139,22.07-13.139,22.07L380.195,292.074z"/>
		<g>
			<path style="fill:none;stroke:#263238;stroke-width:2;stroke-linecap:round;stroke-linejoin:round;stroke-miterlimit:10;" d="
				M375.469,293.589c0,0-1.071-8.324,3.716-20.302c4.787-11.978,6.35-17.174,6.35-17.174"/>
			<path style="fill:none;stroke:#263238;stroke-width:2;stroke-linecap:round;stroke-linejoin:round;stroke-miterlimit:10;" d="
				M372.383,294.42c0,0-1.806-15.558-4.022-21.202c-2.215-5.644-2.723-7.099-2.723-7.099"/>
			<path style="fill:#FFFFFF;stroke:#263238;stroke-miterlimit:10;" d="M368.361,273.218c0,0,3.029-1,3.014-5.524
				c-0.022-6.857-7.198-8.646-7.198-8.646l-1.124,1.778l-2.156-0.41c0,0-1.207,5.385,1.042,9.586
				C364.189,274.204,368.361,273.218,368.361,273.218z"/>
			<path style="fill:#FFFFFF;stroke:#263238;stroke-miterlimit:10;" d="M381.86,266.853c0,0,1.783,0.943,7.104-2.903
				c5.321-3.847,5.676-11.416,5.676-11.416l-5.988,1.486l-2.093-3.115l-3.472,1.904l-3.888-3.518
				C379.198,249.291,374.276,259.281,381.86,266.853z"/>
		</g>
		<path style="fill:#92E3A9;stroke:#263238;stroke-miterlimit:10;" d="M375.674,295.439c0,0-1.107-5.382-0.507-13.05
			c0.599-7.668,1.714-19.648,0.807-22.533c-0.907-2.884-0.061,3.004-4.591,13.3c-4.598,10.448,2.405,25.572,2.405,25.572
			L375.674,295.439z"/>
		<path style="fill:#92E3A9;stroke:#263238;stroke-miterlimit:10;" d="M372.001,291.475c0,0-4.215-3.526-8.515-9.902
			c-4.3-6.376-10.881-16.45-13.385-18.144c-2.505-1.694,1.821,2.39,4.679,13.27c2.9,11.041,17.791,18.525,17.791,18.525
			L372.001,291.475z"/>
		<g>
			<path style="fill:#263238;" d="M387.475,289.686l-0.174-0.004c-0.168,0.543-6.799,0.83-14.951,0.642
				c-7.979-0.184-14.486-0.756-14.892-1.296c2.035,3.176,3.314,3.161,4.113,6.375c1.288,5.184-0.009,6.406-3.25,10.652
				c-3.394,4.446-5.548,30.883-5.702,37.562c-0.323,13.982,8.237,12.799,19.118,13.05c10.881,0.251,19.964,1.84,20.286-12.141
				c0.167-7.251-2.056-34.254-5.752-38.956c-3.686-4.688-4.586-6.826-2.461-12.397C384.708,290.822,385.898,291.908,387.475,289.686
				z"/>
			<path style="fill:#FFFFFF;stroke:#263238;stroke-linecap:round;stroke-linejoin:round;stroke-miterlimit:10;" d="
				M357.445,288.993l-0.007,0c0.006,0.009,0.011,0.019,0.017,0.028C357.449,289.012,357.447,289.003,357.445,288.993z"/>
		</g>
	</g>
</g>
<g id="Table">
	<g>
		<polygon style="fill:#C4C4C4;stroke:#263238;stroke-miterlimit:10;" points="264.789,455.507 258.616,455.507 265.763,391.179 
			278.109,391.179 		"/>
		<polygon style="fill:#C4C4C4;stroke:#263238;stroke-miterlimit:10;" points="412.288,455.507 418.461,455.507 411.313,391.179 
			398.968,391.179 		"/>
		<rect x="250.818" y="354.791" style="fill:#C4C4C4;stroke:#263238;stroke-miterlimit:10;" width="176.739" height="6.498"/>
		<rect x="257.316" y="361.289" style="fill:#C4C4C4;stroke:#263238;stroke-miterlimit:10;" width="163.094" height="35.088"/>
		<rect x="283.307" y="367.137" style="fill:#C4C4C4;stroke:#263238;stroke-miterlimit:10;" width="111.112" height="20.793"/>
		<rect x="326.193" y="374.935" style="fill:#263238;" width="25.341" height="5.198"/>
	</g>
</g>
<g id="Plant_1">
	<g>
		<g>
			<path style="fill:#263238;" d="M157.514,242.889c-0.557,4.202-0.948,8.433-1.122,12.665l-1.023,20.763l-3.865,78.471h4.058
				l2.357-78.375l0.625-20.779c0.087-3.932,0.376-7.844,0.798-11.747c0.189,0.101,0.302,0.159,0.302,0.159s7.794,2.698,11.99,1.199
				c4.197-1.499,12.29-10.791,16.786-24.579c4.496-13.788,8.993-64.146,6.572-64.399c-2.421-0.253-36.846,21.535-45.839,32.925
				c-8.993,11.391-12.889,32.972-9.592,39.567C142.131,233.896,152.889,240.308,157.514,242.889z"/>
			<path style="fill:#263238;" d="M135.365,258.732c0,0,0.332-0.281,0.858-0.771c0.6,1.659,1.116,3.343,1.506,5.057
				c0.344,1.531,0.587,3.078,0.704,4.63c0.109,1.523,0.096,3.184,0.142,4.778l0.136,9.663c0.211,24.224,0.124,48.466-0.001,72.698
				h4.04c-0.418-24.252-0.875-48.497-1.629-72.75l-0.353-9.679c-0.083-1.627-0.105-3.194-0.251-4.886
				c-0.155-1.662-0.445-3.303-0.837-4.911c-0.514-2.077-1.195-4.089-1.983-6.052c1.835-1.899,4.287-4.802,5.567-7.889
				c2.204-5.316-6.701-12.07-14.194-22.261c-7.494-10.191-38.667-27.577-50.058-30.275c-11.39-2.698-15.887-7.194-11.69,1.499
				c4.197,8.693,29.675,41.066,29.675,41.066s26.078,23.081,32.673,23.081C136.264,261.73,135.365,258.732,135.365,258.732z"/>
			<path style="fill:#263238;" d="M147.132,167.427c-0.496,9.004-0.976,18.009-1.439,27.015
				c-0.918,18.051-1.796,36.102-2.429,54.178c-0.139,4.521-0.297,9.04-0.37,13.571c-0.061,2.261-0.083,4.531-0.077,6.806
				c0.005,1.14-0.024,2.265,0.01,3.419l0.127,3.471c0.548,8.917,0.562,17.955,0.581,26.971c-0.015,17.301-0.284,34.623-0.643,51.928
				h4.775c0.051-17.324,0.012-34.633-0.281-51.963c-0.182-9.049-0.351-18.092-1.074-27.203l-0.178-3.298
				c-0.053-1.104-0.044-2.238-0.069-3.357c-0.046-2.242-0.065-4.49-0.044-6.745c-0.008-4.504,0.07-9.017,0.128-13.529
				c0.311-18.051,0.868-36.112,1.464-54.169c0.299-8.926,0.616-17.852,0.949-26.777c6.307,1.185,12.04-0.557,15.277-4.034
				c8.093-8.693,12.29-25.179,13.189-36.27c0.899-11.091-1.199-48.559-1.199-48.559s-4.796-29.076-8.393-29.975
				c-3.597-0.899-5.995-2.997-5.995-2.997s1.199-1.499-0.899-6.295c-2.098-4.796-6.295-4.496-8.393-1.499
				c0,0,4.496-7.194-3.297-3.597c-7.793,3.597-17.985,17.985-18.285,21.282c-0.3,3.297-5.695-3.897-7.494,1.199
				c-1.799,5.096-9.592,49.758-0.3,81.532C128.071,156.641,138.038,165.1,147.132,167.427z"/>
			<g>
				<path style="fill:#92E3A9;stroke:#263238;stroke-miterlimit:10;" d="M110.311,203.72c0,0-8.779-0.283-14.443-3.965
					c-5.664-3.682-18.974-20.107-30.019-34.55c-11.045-14.443-22.373-34.834-24.638-41.064c-2.266-6.23-2.266-9.346-0.85-9.062
					c1.416,0.283-2.832-5.664-3.115-9.062s3.965-4.531,7.93-2.832c3.965,1.699,10.762,7.93,10.762,7.93s-13.31-11.894,3.115-3.682
					c16.426,8.213,40.498,28.32,42.48,30.586c1.982,2.266,31.718,33.134,29.17,46.162
					C128.153,197.206,119.657,206.835,110.311,203.72z"/>
				<g>
					<path style="fill:none;stroke:#263238;stroke-miterlimit:10;" d="M62.449,118.422c0.202,2.958,0.337,5.911,0.165,6.946"/>
					<path style="fill:none;stroke:#263238;stroke-miterlimit:10;" d="M61.839,111.04c0,0,0.18,1.862,0.375,4.26"/>
					<path style="fill:none;stroke:#263238;stroke-miterlimit:10;" d="M70.939,116.461c0,0,0.968,5.808-0.194,10.455"/>
					<path style="fill:none;stroke:#263238;stroke-miterlimit:10;" d="M79.054,131.983c-0.257,2.922-0.673,5.936-1.339,7.518"/>
					<path style="fill:none;stroke:#263238;stroke-miterlimit:10;" d="M79.458,124.399c0,0-0.041,2.435-0.238,5.418"/>
					<path style="fill:none;stroke:#263238;stroke-miterlimit:10;" d="M87.107,140.796c-0.359,1.724-0.78,3.339-1.26,4.513"/>
					<path style="fill:none;stroke:#263238;stroke-miterlimit:10;" d="M88.558,130.982c0,0-0.322,3.354-0.93,7.009"/>
					<path style="fill:none;stroke:#263238;stroke-miterlimit:10;" d="M99.593,142.599c0,0-3.291,13.94-4.066,16.07"/>
					<path style="fill:none;stroke:#263238;stroke-miterlimit:10;" d="M111.597,160.798c0,0-3.872,7.164-6.97,9.1"/>
					<path style="fill:none;stroke:#263238;stroke-miterlimit:10;" d="M117.564,181.132c-1.747,0.708-3.672,1.381-5.386,1.738"/>
					<path style="fill:none;stroke:#263238;stroke-miterlimit:10;" d="M123.02,178.61c0,0-1.398,0.742-3.363,1.626"/>
					<path style="fill:none;stroke:#263238;stroke-miterlimit:10;" d="M122.616,189.69c-3.027,0.352-7.41,0.809-10.631,0.924"/>
					<path style="fill:none;stroke:#263238;stroke-miterlimit:10;" d="M126.118,189.259c0,0-0.586,0.078-1.548,0.197"/>
					<path style="fill:none;stroke:#263238;stroke-miterlimit:10;" d="M53.826,129.191c1.37,0.073,2.738,0.048,3.948-0.145"/>
					<path style="fill:none;stroke:#263238;stroke-miterlimit:10;" d="M45.576,127.884c0,0,2.651,0.698,5.817,1.088"/>
					<line style="fill:none;stroke:#263238;stroke-miterlimit:10;" x1="42.285" y1="119.172" x2="50.029" y2="120.334"/>
					<path style="fill:none;stroke:#263238;stroke-miterlimit:10;" d="M64.368,139.401c1.67,0.064,3.182,0.051,4.247-0.094"/>
					<path style="fill:none;stroke:#263238;stroke-miterlimit:10;" d="M52.933,138.339c0,0,4.109,0.557,8.317,0.878"/>
					<path style="fill:none;stroke:#263238;stroke-miterlimit:10;" d="M58.935,148.988c0,0,7.164,0.968,15.489-0.581"/>
					<path style="fill:none;stroke:#263238;stroke-miterlimit:10;" d="M78.66,159.337c1.934-0.153,3.779-0.421,5.251-0.862"/>
					<path style="fill:none;stroke:#263238;stroke-miterlimit:10;" d="M66.486,159.249c0,0,4.018,0.335,8.51,0.256"/>
					<path style="fill:none;stroke:#263238;stroke-miterlimit:10;" d="M87.931,168.432c1.311-0.197,2.576-0.475,3.724-0.858"/>
					<path style="fill:none;stroke:#263238;stroke-miterlimit:10;" d="M73.456,168.349c0,0,5.651,0.779,11.424,0.403"/>
					<path style="fill:none;stroke:#263238;stroke-miterlimit:10;" d="M87.786,179.557c3.031,0.035,6.594-0.215,10.065-1.14"/>
					<path style="fill:none;stroke:#263238;stroke-miterlimit:10;" d="M79.845,178.804c0,0,1.589,0.331,4.068,0.555"/>
					<path style="fill:none;stroke:#263238;stroke-miterlimit:10;" d="M97.032,189.467c1.322-0.328,2.577-0.823,3.529-1.563"/>
					<path style="fill:none;stroke:#263238;stroke-miterlimit:10;" d="M89.526,190.033c0,0,2.007,0.154,4.429-0.067"/>
					<path style="fill:none;stroke:#263238;stroke-miterlimit:10;" d="M104.24,193.325c0,0-2.13,1.936-6.002,2.711"/>
				</g>
			</g>
			<path style="fill:#92E3A9;stroke:#263238;stroke-miterlimit:10;" d="M110,217.568l0.595,2.016
				c0.37,1.257,0.705,2.617,1.055,3.924l1.996,7.974c5.226,21.313,10.233,42.691,15.401,64.043l1.97,8.013l0.512,2.01
				c0.169,0.684,0.311,1.241,0.439,1.897c0.264,1.268,0.447,2.598,0.626,3.921c0.666,5.332,0.967,10.794,1.203,16.242
				c0.362,9.036,0.47,18.117,0.438,27.179h4.595c-0.085-9.132-0.31-18.245-0.794-27.383c-0.311-5.514-0.681-11.022-1.446-16.577
				c-0.207-1.393-0.415-2.782-0.728-4.198c-0.141-0.689-0.346-1.461-0.516-2.107l-0.533-1.972l-2.076-7.95
				c-5.469-21.254-10.784-42.561-16.323-63.822l-2.118-7.972c-0.379-1.339-0.717-2.641-1.142-4.011l-0.598-1.923
				c-0.173-0.604-0.311-1.261-0.45-1.911c-1.01-5.308-1.832-10.82-3.093-16.2c-2.443-10.777-6.275-21.401-12.369-30.739
				c-3.049-4.641-6.461-8.984-9.987-13.216c-3.528-4.232-7.196-8.334-10.934-12.367c-7.489-8.056-15.233-15.851-23.211-23.418
				l-0.661,0.696c7.843,7.657,15.469,15.557,22.814,23.69c3.666,4.072,7.26,8.209,10.701,12.461
				c3.439,4.25,6.758,8.606,9.672,13.186c5.801,9.176,9.4,19.594,11.649,30.223c1.168,5.332,1.886,10.701,2.849,16.191
				C109.674,216.16,109.807,216.849,110,217.568z"/>
			<g>
				<path style="fill:#92E3A9;stroke:#263238;stroke-miterlimit:10;" d="M139.193,175.051c0,0-4.498,2.249-13.043,0.675
					c-8.546-1.574-22.263-5.397-27.436-22.488c-5.172-17.091-5.847-49.474-5.397-51.723c0.45-2.249,1.574-7.646,1.574-7.646h3.373
					l-1.799-5.847l3.373-8.546c0,0,4.048-6.971,4.273-7.646s3.373,3.823,3.373,3.823s0.45-4.722,0.45-5.397
					c0-0.675,5.622-3.598,10.569-2.698c4.947,0.899,23.613,13.493,31.483,26.311c7.871,12.818,17.99,39.579,20.014,55.546
					c2.024,15.967-5.847,20.464-14.842,23.837C146.164,176.625,139.193,175.051,139.193,175.051z"/>
				<path style="fill:none;stroke:#263238;stroke-miterlimit:10;" d="M153.278,160.691c2.609-1.766,5.358-3.88,7.726-6.249"/>
				<path style="fill:none;stroke:#263238;stroke-miterlimit:10;" d="M143.445,166.337c0,0,2.85-1.31,6.583-3.568"/>
				<path style="fill:none;stroke:#263238;stroke-miterlimit:10;" d="M164.402,142.548c0,0-11.045,9.629-18.408,11.894"/>
				<path style="fill:none;stroke:#263238;stroke-miterlimit:10;" d="M141.271,142.716c-0.726,0.393-1.422,0.721-2.073,0.965"/>
				<path style="fill:none;stroke:#263238;stroke-miterlimit:10;" d="M157.605,129.521c0,0-6.668,6.668-12.855,11.007"/>
				<path style="fill:none;stroke:#263238;stroke-miterlimit:10;" d="M151.498,122.86c-2.027,1.837-4.711,3.858-8.052,5.529"/>
				<path style="fill:none;stroke:#263238;stroke-miterlimit:10;" d="M156.189,117.627c0,0-1.079,1.655-3.238,3.84"/>
				<path style="fill:none;stroke:#263238;stroke-miterlimit:10;" d="M141.982,107.351c2.411-2.194,4.62-4.457,5.995-6.434"/>
				<path style="fill:none;stroke:#263238;stroke-miterlimit:10;" d="M129.852,117.06c0,0,4.592-3.253,9.328-7.256"/>
				<path style="fill:none;stroke:#263238;stroke-miterlimit:10;" d="M145.711,95.254c0,0-8.496,7.363-11.894,9.629"/>
				<path style="fill:none;stroke:#263238;stroke-miterlimit:10;" d="M117.19,113.932c1.575,0.223,3.164,0.336,4.732,0.297"/>
				<path style="fill:none;stroke:#263238;stroke-miterlimit:10;" d="M98.133,106.865c0,0,7.301,4.48,15.807,6.455"/>
				<path style="fill:none;stroke:#263238;stroke-miterlimit:10;" d="M102.665,123.291c0,0,12.461,3.965,21.523,3.398"/>
				<path style="fill:none;stroke:#263238;stroke-miterlimit:10;" d="M122.523,146.229c2.194,0.09,4.462,0.016,6.762-0.283"/>
				<path style="fill:none;stroke:#263238;stroke-miterlimit:10;" d="M100.116,139.999c0,0,7.97,4.555,18.487,5.897"/>
				<path style="fill:none;stroke:#263238;stroke-miterlimit:10;" d="M124.132,156.196c1.931-0.134,3.872-0.415,5.719-0.904"/>
				<path style="fill:none;stroke:#263238;stroke-miterlimit:10;" d="M108.045,154.726c0,0,5.749,1.471,12.47,1.564"/>
				<path style="fill:none;stroke:#263238;stroke-miterlimit:10;" d="M120.789,168.32c0,0,7.93,1.133,12.744,0.85"/>
				<path style="fill:none;stroke:#263238;stroke-miterlimit:10;" d="M109.16,103.272c3.326,2.072,7.367,4.06,11.063,4.442"/>
				<path style="fill:none;stroke:#263238;stroke-miterlimit:10;" d="M102.098,98.086c0,0,1.781,1.577,4.458,3.459"/>
				<path style="fill:none;stroke:#263238;stroke-miterlimit:10;" d="M135.805,87.57c-2.717,2.346-6.888,5.767-10.201,7.684"/>
				<path style="fill:none;stroke:#263238;stroke-miterlimit:10;" d="M138.631,85.059c0,0-0.448,0.415-1.204,1.088"/>
				<path style="fill:none;stroke:#263238;stroke-miterlimit:10;" d="M102.948,85.059c0,0,6.514,7.363,13.877,8.496"/>
				<path style="fill:none;stroke:#263238;stroke-miterlimit:10;" d="M129.569,77.412c0,0-4.531,5.098-8.496,6.797"/>
				<path style="fill:none;stroke:#263238;stroke-miterlimit:10;" d="M104.364,79.961c0,0,3.965,2.832,7.93,3.965"/>
			</g>
			<path style="fill:#92E3A9;stroke:#263238;stroke-miterlimit:10;" d="M138.468,178.083c1.83,12.024,3.163,24.13,4.253,36.256
				c2.174,24.262,3.302,48.602,4.291,72.976c0.131,3.049,0.256,6.096,0.425,9.163c0.173,3.075,0.322,6.045,0.422,9.094
				c0.198,6.069,0.29,12.158,0.358,18.247c0.108,10.318,0.119,20.646,0.086,30.969h4.636c-0.1-10.349-0.243-20.691-0.484-31.042
				c-0.147-6.106-0.317-12.212-0.595-18.331c-0.138-3.045-0.336-6.164-0.544-9.175c-0.205-3.02-0.369-6.066-0.539-9.107
				c-1.301-24.356-2.745-48.755-5.237-73.062c-1.25-12.153-2.743-24.289-4.739-36.358c-2.003-12.068-4.534-24.027-7.295-35.921
				c-5.565-23.781-12-47.331-19.074-70.693l-0.918,0.278c6.764,23.419,12.895,47.039,18.142,70.834
				C134.261,154.109,136.63,166.06,138.468,178.083z"/>
			<g>
				<g>
					<path style="fill:#92E3A9;stroke:#263238;stroke-miterlimit:10;" d="M181.642,215.649c0,0-5.294-11.278-6.675-23.247
						c-1.381-11.969,11.048-28.311,20.025-36.137c8.977-7.826,29.001-19.564,35.446-21.406c6.445-1.841,16.112-5.524,18.183-5.524
						s-0.23-0.23,2.072,0c2.302,0.23,8.056-1.611,9.207-0.46c1.151,1.151,3.913,5.294,0,14.04
						c-3.913,8.746-10.588,16.112-12.659,18.644c-2.072,2.532-1.841,4.373-1.841,4.373s1.151,0.691-0.921,3.222
						c-2.072,2.532-3.222,4.373-7.365,9.437c-4.143,5.064-8.286,5.984-8.286,5.984l0.691,3.222c0,0-2.532,3.222-5.064,6.445
						c-2.532,3.222-12.429,21.636-18.874,24.858C199.135,222.324,184.865,224.626,181.642,215.649z"/>
					<path style="fill:none;stroke:#263238;stroke-miterlimit:10;" d="M249.082,131.867c0,0-2.072,7.596-2.302,9.667"/>
					<path style="fill:none;stroke:#263238;stroke-miterlimit:10;" d="M236.426,143.039c-0.326,1.226-0.514,2.381-0.464,3.329"/>
					<path style="fill:none;stroke:#263238;stroke-miterlimit:10;" d="M240.565,133.248c0,0-1.826,3.304-3.18,6.866"/>
					<path style="fill:none;stroke:#263238;stroke-miterlimit:10;" d="M232.049,136.701c0,0-3.683,12.659-3.913,16.572"/>
					<path style="fill:none;stroke:#263238;stroke-miterlimit:10;" d="M220.944,145.965c-1.266,3.798-2.474,8.459-2.244,11.911"/>
					<path style="fill:none;stroke:#263238;stroke-miterlimit:10;" d="M223.533,139.233c0,0-0.722,1.602-1.61,3.971"/>
					<path style="fill:none;stroke:#263238;stroke-miterlimit:10;" d="M209.705,161.696c-0.227,2.223-0.27,4.352,0.018,6.078"/>
					<path style="fill:none;stroke:#263238;stroke-miterlimit:10;" d="M212.715,147.519c0,0-1.984,6.393-2.825,12.62"/>
					<path style="fill:none;stroke:#263238;stroke-miterlimit:10;" d="M202.962,168.9c0.043,1.867,0.201,3.65,0.547,5.089"/>
					<path style="fill:none;stroke:#263238;stroke-miterlimit:10;" d="M203.738,156.956c0,0-0.658,4.607-0.773,9.435"/>
					<path style="fill:none;stroke:#263238;stroke-miterlimit:10;" d="M194.848,174.765c0.259,1.942,0.604,3.712,1.065,4.977"/>
					<path style="fill:none;stroke:#263238;stroke-miterlimit:10;" d="M194.071,161.559c0,0,0,5.867,0.551,11.269"/>
					<path style="fill:none;stroke:#263238;stroke-miterlimit:10;" d="M190.158,183.818c0.324,1.102,0.704,2.211,1.151,3.29"/>
					<path style="fill:none;stroke:#263238;stroke-miterlimit:10;" d="M188.317,172.607c0,0,0.091,3.093,0.845,7.05"/>
					<path style="fill:none;stroke:#263238;stroke-miterlimit:10;" d="M184.092,191.763c0.661,1.043,1.447,2.047,2.384,2.94"/>
					<path style="fill:none;stroke:#263238;stroke-miterlimit:10;" d="M180.721,181.814c0,0,0.258,3.011,1.615,6.455"/>
					<path style="fill:none;stroke:#263238;stroke-miterlimit:10;" d="M178.65,197.466c0,0,2.762,4.373,5.754,5.984"/>
					<path style="fill:none;stroke:#263238;stroke-miterlimit:10;" d="M252.764,151.202c0,0-1.381,0-6.215-0.921"/>
					<path style="fill:none;stroke:#263238;stroke-miterlimit:10;" d="M249.312,156.495c0,0-6.675,0.691-9.437-0.23"/>
					<path style="fill:none;stroke:#263238;stroke-miterlimit:10;" d="M235.311,163.164c2.444,0.407,5.477,0.821,7.096,0.697"/>
					<path style="fill:none;stroke:#263238;stroke-miterlimit:10;" d="M231.589,162.48c0,0,0.682,0.14,1.72,0.332"/>
					<path style="fill:none;stroke:#263238;stroke-miterlimit:10;" d="M233.323,170.832c2.352,0.333,4.516,0.483,5.631,0.164"/>
					<path style="fill:none;stroke:#263238;stroke-miterlimit:10;" d="M223.763,168.925c0,0,2.815,0.704,6.083,1.324"/>
					<path style="fill:none;stroke:#263238;stroke-miterlimit:10;" d="M226.387,179.614c2.39,0.268,4.72,0.246,6.583-0.332"/>
					<path style="fill:none;stroke:#263238;stroke-miterlimit:10;" d="M213.636,176.29c0,0,4.614,1.846,9.74,2.852"/>
					<path style="fill:none;stroke:#263238;stroke-miterlimit:10;" d="M219.049,187.854c2.266,0.667,4.455,1.189,6.095,1.326"/>
					<path style="fill:none;stroke:#263238;stroke-miterlimit:10;" d="M207.882,183.886c0,0,3.902,1.607,8.265,3.055"/>
					<path style="fill:none;stroke:#263238;stroke-miterlimit:10;" d="M213.83,195.678c1.921,0.334,3.719,0.579,5.1,0.637"/>
					<path style="fill:none;stroke:#263238;stroke-miterlimit:10;" d="M201.207,192.862c0,0,5.346,1.412,10.562,2.433"/>
					<path style="fill:none;stroke:#263238;stroke-miterlimit:10;" d="M205.249,205.668c2.229,0.595,4.626,1.004,7.006,1.004"/>
					<path style="fill:none;stroke:#263238;stroke-miterlimit:10;" d="M194.532,201.148c0,0,2.675,1.646,6.528,3.141"/>
					<path style="fill:none;stroke:#263238;stroke-miterlimit:10;" d="M200.077,213.484c1.184,0.266,2.481,0.531,3.892,0.784"/>
					<path style="fill:none;stroke:#263238;stroke-miterlimit:10;" d="M190.619,210.585c0,0,1.975,0.935,5.994,2.038"/>
				</g>
				<path style="fill:#92E3A9;stroke:#263238;stroke-miterlimit:10;" d="M160.322,354.788c0.334-18.336,0.808-36.691,1.695-54.993
					c0.251-4.915,0.519-9.833,0.912-14.721c0.407-4.903,0.809-9.731,1.847-14.456c2.04-9.519,5.043-18.914,8.297-28.172
					c3.334-9.239,7.011-18.371,11.227-27.238c2.117-4.428,4.372-8.786,6.824-13.023c2.475-4.228,5.254-8.21,8.345-12.017
					c6.245-7.553,13.18-14.573,20.353-21.315c7.19-6.729,14.607-13.241,22.25-19.452l-0.594-0.753
					c-7.774,6.112-15.303,12.51-22.632,19.149c-7.312,6.653-14.395,13.589-20.854,21.148c-3.196,3.804-6.141,7.883-8.721,12.135
					c-2.562,4.265-4.915,8.639-7.127,13.079c-4.405,8.89-8.258,18.029-11.773,27.297c-3.437,9.3-6.617,18.697-8.876,28.451
					c-0.28,1.22-0.502,2.465-0.755,3.697c-0.227,1.238-0.38,2.488-0.572,3.732c-0.188,1.247-0.292,2.477-0.442,3.716
					c-0.147,1.238-0.275,2.475-0.379,3.709c-0.477,4.942-0.827,9.875-1.159,14.81c-1.191,18.406-1.963,36.8-2.597,55.216H160.322z"
					/>
			</g>
			<g>
				<path style="fill:#92E3A9;stroke:#263238;stroke-miterlimit:10;" d="M122.37,304.519c1.576,0.407,2.925,0.641,4.002,0.674
					c7.165,0.224,8.093-7.793,7.793-9.592l-8.093-23.081c0,0-33.572-18.884-50.358-19.783c-16.786-0.899-27.277,0-24.879,4.496
					c2.398,4.496,13.189,18.285,31.174,28.476C97.291,294.37,113.459,302.218,122.37,304.519"/>
				<path style="fill:none;stroke:#263238;stroke-miterlimit:10;" d="M85.045,271.442c1.191-0.308,2.394-0.561,3.559-0.72"/>
				<path style="fill:none;stroke:#263238;stroke-miterlimit:10;" d="M74.216,275.518c0,0,3.489-1.745,7.774-3.169"/>
				<path style="fill:none;stroke:#263238;stroke-miterlimit:10;" d="M83.508,282.413c0,0,8.693-4.796,11.391-5.695"/>
				<path style="fill:none;stroke:#263238;stroke-miterlimit:10;" d="M95.918,284.69c1.948-1.252,4.905-2.714,8.872-3.477"/>
				<path style="fill:none;stroke:#263238;stroke-miterlimit:10;" d="M93.1,286.909c0,0,0.501-0.54,1.503-1.301"/>
				<path style="fill:none;stroke:#263238;stroke-miterlimit:10;" d="M110.348,289.029c-1.818,0.81-3.617,1.682-4.658,2.376"/>
				<path style="fill:none;stroke:#263238;stroke-miterlimit:10;" d="M116.181,286.609c0,0-1.491,0.573-3.395,1.369"/>
				<path style="fill:none;stroke:#263238;stroke-miterlimit:10;" d="M118.814,296.073c-1.522,0.396-3.017,0.862-3.832,1.327"/>
				<path style="fill:none;stroke:#263238;stroke-miterlimit:10;" d="M123.675,295.002c0,0-1.137,0.207-2.617,0.534"/>
				<path style="fill:none;stroke:#263238;stroke-miterlimit:10;" d="M83.808,256.634c0,0,4.196,7.494,4.196,8.693"/>
				<line style="fill:none;stroke:#263238;stroke-miterlimit:10;" x1="97.074" y1="267.829" x2="96.997" y2="270.123"/>
				<line style="fill:none;stroke:#263238;stroke-miterlimit:10;" x1="97.297" y1="261.13" x2="97.14" y2="265.835"/>
				<line style="fill:none;stroke:#263238;stroke-miterlimit:10;" x1="107.488" y1="266.526" x2="107.188" y2="274.02"/>
				<path style="fill:none;stroke:#263238;stroke-miterlimit:10;" d="M116.481,269.823c0,0-0.599,6.295-0.899,8.693"/>
				<path style="fill:none;stroke:#263238;stroke-miterlimit:10;" d="M125.173,275.219c0,0-1.199,5.695-2.398,8.393"/>
				<path style="fill:none;stroke:#263238;stroke-miterlimit:10;" d="M76.563,261.454c0.426,1.19,0.782,2.35,0.95,3.274"/>
				<path style="fill:none;stroke:#263238;stroke-miterlimit:10;" d="M73.916,255.135c0,0,0.902,1.895,1.816,4.15"/>
				<path style="fill:none;stroke:#263238;stroke-miterlimit:10;" d="M65.823,253.936c0,0,2.997,7.793,3.597,9.292"/>
			</g>
			<path style="fill:#92E3A9;stroke:#263238;stroke-miterlimit:10;" d="M127.04,293.129c3.907,4.079,7,8.988,7.888,14.536
				c0.969,5.573,1.143,11.355,1.196,17.096c0.022,10-0.501,20.047-1.316,30.026h3.979c0.444-10.033,0.592-20.044,0.202-30.094
				c-0.272-5.824-0.649-11.663-1.879-17.475c-0.333-1.45-0.747-2.905-1.273-4.323c-0.546-1.408-1.204-2.764-1.952-4.065
				c-1.517-2.59-3.398-4.923-5.468-7.038c-4.173-4.211-9.047-7.569-14.116-10.464c-5.084-2.885-10.402-5.299-15.817-7.424
				c-5.42-2.118-10.943-3.943-16.526-5.544c-5.589-1.59-11.218-2.991-16.938-4.084l-0.176,0.943
				c5.643,1.159,11.247,2.634,16.775,4.291c5.529,1.668,10.99,3.557,16.33,5.729c5.336,2.179,10.558,4.639,15.511,7.542
				C118.399,285.691,123.104,289.044,127.04,293.129z"/>
			<g>
				<path style="fill:#92E3A9;stroke:#263238;stroke-miterlimit:10;" d="M165.939,302.196c0,0,5.396-16.186,10.791-27.877
					c5.396-11.69,14.987-21.882,29.975-20.083c14.987,1.798,36.869,16.486,38.967,20.982c2.098,4.496-0.899,6.295-22.781,7.494
					c-21.882,1.199-48.559,12.29-52.756,15.887C165.939,302.196,165.939,302.196,165.939,302.196z"/>
				<path style="fill:none;stroke:#263238;stroke-miterlimit:10;" d="M200.006,278.784c2.153,1.881,4.563,3.657,6.502,4.222"/>
				<path style="fill:none;stroke:#263238;stroke-miterlimit:10;" d="M194.467,273.295c0,0,1.624,1.838,3.83,3.93"/>
				<path style="fill:none;stroke:#263238;stroke-miterlimit:10;" d="M187.67,275.237c0,0,4.078,6.797,6.214,8.351"/>
				<path style="fill:none;stroke:#263238;stroke-miterlimit:10;" d="M183.86,283.848c0.641,1.169,1.398,2.32,2.256,3.236"/>
				<path style="fill:none;stroke:#263238;stroke-miterlimit:10;" d="M181.456,278.151c0,0,0.482,1.606,1.361,3.581"/>
				<path style="fill:none;stroke:#263238;stroke-miterlimit:10;" d="M175.435,285.336c0,0,1.748,3.301,3.301,4.661"/>
				<path style="fill:none;stroke:#263238;stroke-miterlimit:10;" d="M185.887,267.201c1.952-3.089,4.486-6.424,7.221-8.277"/>
				<path style="fill:none;stroke:#263238;stroke-miterlimit:10;" d="M182.038,274.266c0,0,0.99-2.21,2.617-5.026"/>
				<path style="fill:none;stroke:#263238;stroke-miterlimit:10;" d="M200.262,260.348c-3.488,2.827-8.024,6.763-9.29,9.064"/>
				<path style="fill:none;stroke:#263238;stroke-miterlimit:10;" d="M204.566,256.982c0,0-0.864,0.645-2.163,1.66"/>
				<path style="fill:none;stroke:#263238;stroke-miterlimit:10;" d="M204.092,265.777c-1.369,0.844-2.484,1.591-3.022,2.08"/>
				<path style="fill:none;stroke:#263238;stroke-miterlimit:10;" d="M214.471,259.895c0,0-4.106,2.194-7.83,4.361"/>
				<path style="fill:none;stroke:#263238;stroke-miterlimit:10;" d="M218.449,266.56c-1.882,0.774-3.625,1.539-4.561,2.074"/>
				<path style="fill:none;stroke:#263238;stroke-miterlimit:10;" d="M226.123,263.585c0,0-2.695,0.99-5.626,2.15"/>
				<path style="fill:none;stroke:#263238;stroke-miterlimit:10;" d="M210.013,277.591c1.162,1.264,2.388,2.481,3.293,3.084"/>
				<path style="fill:none;stroke:#263238;stroke-miterlimit:10;" d="M206.508,273.49c0,0,0.949,1.196,2.2,2.638"/>
				<path style="fill:none;stroke:#263238;stroke-miterlimit:10;" d="M219.714,275.82c0,0,1.748,2.136,3.107,3.302"/>
				<line style="fill:none;stroke:#263238;stroke-miterlimit:10;" x1="233.114" y1="266.692" x2="223.404" y2="271.548"/>
				<path style="fill:#92E3A9;stroke:#263238;stroke-miterlimit:10;" d="M165.353,354.788c0.106-12.679,0.27-25.373,0.717-38.03
					c0.133-3.263,0.259-6.541,0.537-9.758c0.048-0.819,0.178-1.573,0.261-2.362c0.15-0.763,0.28-1.521,0.508-2.281
					c0.398-1.521,0.953-3.027,1.553-4.515c2.43-5.936,5.737-11.524,9.03-17.163c1.662-1.798,3.817-3.387,6.04-4.645
					c2.261-1.287,4.713-2.234,7.239-2.875c5.049-1.331,10.427-0.862,15.739-0.457c5.32,0.464,10.633,1.163,15.939,1.916l7.962,1.155
					l3.993,0.553c0.67,0.08,1.332,0.179,2.012,0.237l1.015,0.098l1.067,0.028l-0.048-0.958l-0.944-0.041l-0.986-0.11
					c-0.655-0.065-1.319-0.174-1.979-0.264l-3.968-0.611l-7.946-1.275c-5.303-0.834-10.621-1.616-15.982-2.166
					c-2.677-0.294-5.376-0.461-8.088-0.551c-2.711-0.044-5.517,0.15-8.186,0.806c-2.679,0.636-5.292,1.601-7.715,2.931
					c-2.432,1.346-4.675,2.905-6.673,5.014l-0.042,0.044l-0.059,0.097c-3.376,5.592-6.853,11.24-9.478,17.382
					c-0.647,1.541-1.254,3.109-1.713,4.754c-0.254,0.809-0.421,1.666-0.596,2.508c-0.105,0.838-0.259,1.702-0.32,2.52
					c-0.337,3.313-0.51,6.587-0.694,9.873c-0.641,12.721-0.996,25.426-1.294,38.144H165.353z"/>
			</g>
		</g>
		<g>
			<g>
				<path style="fill:#FFFFFF;stroke:#263238;stroke-miterlimit:10;" d="M105.391,352.321c0,0,2.583-3.053,3.522-3.288
					c0.939-0.235,4.462,0.939,4.932,1.879c0.47,0.939,0.47,2.114,0.47,2.114L105.391,352.321z"/>
				<path style="fill:#FFFFFF;stroke:#263238;stroke-miterlimit:10;" d="M118.776,352.321c0,0,2.583-3.053,3.523-3.288
					c0.939-0.235,4.462,0.939,4.932,1.879c0.47,0.939,0.47,2.114,0.47,2.114L118.776,352.321z"/>
				<path style="fill:#FFFFFF;stroke:#263238;stroke-miterlimit:10;" d="M128.405,351.382c0,0,2.583-3.053,3.523-3.288
					c0.939-0.235,4.462,0.939,4.932,1.879c0.47,0.939,0.47,2.113,0.47,2.113L128.405,351.382z"/>
				<path style="fill:#FFFFFF;stroke:#263238;stroke-miterlimit:10;" d="M172.789,352.086c0,0,2.583-3.053,3.523-3.288
					c0.939-0.235,4.462,0.939,4.932,1.879s0.47,2.113,0.47,2.113L172.789,352.086z"/>
				<path style="fill:#FFFFFF;stroke:#263238;stroke-miterlimit:10;" d="M185.235,352.086c0,0,2.583-3.053,3.523-3.288
					c0.939-0.235,4.462,0.939,4.932,1.879c0.47,0.939,0.47,2.113,0.47,2.113L185.235,352.086z"/>
				<path style="fill:#FFFFFF;stroke:#263238;stroke-miterlimit:10;" d="M189.462,352.086c0,0-2.583-3.053-3.523-3.288
					c-0.939-0.235-4.462,0.939-4.932,1.879c-0.47,0.939-0.47,2.113-0.47,2.113L189.462,352.086z"/>
				<path style="fill:#FFFFFF;stroke:#263238;stroke-miterlimit:10;" d="M146.722,352.791c0,0-2.583-3.053-3.523-3.288
					c-0.939-0.235-4.462,0.939-4.932,1.879c-0.47,0.939-0.47,2.114-0.47,2.114L146.722,352.791z"/>
				<path style="fill:#FFFFFF;stroke:#263238;stroke-miterlimit:10;" d="M156.35,352.791c0,0-2.583-3.053-3.523-3.288
					c-0.939-0.235-4.462,0.939-4.932,1.879c-0.47,0.939-0.47,2.114-0.47,2.114L156.35,352.791z"/>
				<path style="fill:#FFFFFF;stroke:#263238;stroke-miterlimit:10;" d="M173.963,352.791c0,0-2.583-3.053-3.523-3.288
					c-0.939-0.235-4.462,0.939-4.932,1.879c-0.47,0.939-0.47,2.114-0.47,2.114L173.963,352.791z"/>
				<path style="fill:#FFFFFF;stroke:#263238;stroke-miterlimit:10;" d="M123.473,352.321c0,0-2.583-3.053-3.523-3.288
					c-0.939-0.235-4.462,0.939-4.932,1.879c-0.47,0.939-0.47,2.114-0.47,2.114L123.473,352.321z"/>
				<path style="fill:#FFFFFF;stroke:#263238;stroke-miterlimit:10;" d="M157.759,352.321c0,0,2.583-3.053,3.523-3.288
					c0.939-0.235,4.462,0.939,4.932,1.879c0.47,0.939,0.47,2.114,0.47,2.114L157.759,352.321z"/>
				<path style="fill:#FFFFFF;stroke:#263238;stroke-miterlimit:10;" d="M132.162,352.321c0,0-2.583-3.053-3.523-3.288
					c-0.939-0.235-4.462,0.939-4.932,1.879c-0.47,0.939-0.47,2.114-0.47,2.114L132.162,352.321z"/>
				<path style="fill:#FFFFFF;stroke:#263238;stroke-miterlimit:10;" d="M141.086,353.026c0,0-2.583-3.053-3.523-3.288
					c-0.939-0.235-4.462,0.939-4.932,1.879c-0.47,0.939-0.47,2.113-0.47,2.113L141.086,353.026z"/>
			</g>
			<path style="fill:#FFFFFF;stroke:#263238;stroke-miterlimit:10;" d="M197.285,352.009h-38.492h-3.909h-53.013
				c0,0-2.904,28.672,1.162,50.35c4.066,21.679,16.263,35.665,20.329,40.56c4.066,4.895,7.551,9.091,11.036,12.588h20.486h3.909
				h5.965c3.485-3.496,6.97-7.692,11.036-12.588c4.066-4.895,16.264-18.881,20.329-40.56
				C200.189,380.681,197.285,352.009,197.285,352.009z"/>
		</g>
	</g>
</g>
</svg>
